<?xml version="1.0" encoding="UTF-8"?>
<svg width="69px" height="81px" viewBox="0 0 69 81" version="1.1" xmlns="http://www.w3.org/2000/svg" xmlns:xlink="http://www.w3.org/1999/xlink">
    <!-- Generator: Sketch 48.2 (47327) - http://www.bohemiancoding.com/sketch -->
    <title>icon-rainbow</title>
    <desc>Created with Sketch.</desc>
    <defs>
        <path d="M32.5,65.2173913 C55.0106579,65.2173913 65,55.19464 65,32.6086957 C65,10.0227513 55.0106579,0 32.5,0 C9.98934212,2.76598045e-15 1.37838026e-15,10.0227513 0,32.6086957 C0,55.19464 9.98934212,65.2173913 32.5,65.2173913 Z" id="path-1"></path>
        <filter x="-13.0%" y="-13.0%" width="126.0%" height="125.9%" filterUnits="objectBoundingBox" id="filter-2">
            <feOffset dx="7" dy="7" in="SourceAlpha" result="shadowOffsetInner1"></feOffset>
            <feComposite in="shadowOffsetInner1" in2="SourceAlpha" operator="arithmetic" k2="-1" k3="1" result="shadowInnerInner1"></feComposite>
            <feColorMatrix values="0 0 0 0 1   0 0 0 0 1   0 0 0 0 1  0 0 0 1 0" type="matrix" in="shadowInnerInner1" result="shadowMatrixInner1"></feColorMatrix>
            <feOffset dx="-13" dy="-3" in="SourceAlpha" result="shadowOffsetInner2"></feOffset>
            <feComposite in="shadowOffsetInner2" in2="SourceAlpha" operator="arithmetic" k2="-1" k3="1" result="shadowInnerInner2"></feComposite>
            <feColorMatrix values="0 0 0 0 0   0 0 0 0 0   0 0 0 0 0  0 0 0 0.05 0" type="matrix" in="shadowInnerInner2" result="shadowMatrixInner2"></feColorMatrix>
            <feMerge>
                <feMergeNode in="shadowMatrixInner1"></feMergeNode>
                <feMergeNode in="shadowMatrixInner2"></feMergeNode>
            </feMerge>
        </filter>
        <path d="M15.6,5.23105583 C27.3537612,5.23105583 31.2,13.0384411 31.2,6.55838035 C31.2,0.0783196418 20.7853402,0 15.6,0 C10.4146598,0 0,0.0783196418 0,6.55838035 C0,13.0384411 3.8462388,5.23105583 15.6,5.23105583 Z" id="path-3"></path>
        <path d="M9.1,26.8597198 C9.90907243,27.2621056 10.4,27.7906691 10.4,28.3695652 C10.4,29.6302152 8.0718807,30.6521739 5.2,30.6521739 C2.3281193,30.6521739 0,29.6302152 0,28.3695652 C0,27.1089152 2.3281193,26.0869565 5.2,26.0869565 L5.2,3.9 C5.2,1.74608948 6.94608948,3.95666944e-16 9.1,0 L9.1,26.8597198 Z" id="path-5"></path>
        <path d="M12.9568134,28.3813726 C14.1598919,28.7334482 14.95,29.3270476 14.95,30 C14.95,31.0805571 12.9128956,31.9565217 10.4,31.9565217 C7.88710439,31.9565217 5.85,31.0805571 5.85,30 C5.85,29.113343 7.22160531,28.3644404 9.10220724,28.124218 C9.10074252,28.098941 9.1,28.0734703 9.1,28.0478261 L9.1,0 L13,0 L13,28.0478261 C13,28.1631303 12.9849886,28.2749283 12.9568134,28.3813726 Z" id="path-6"></path>
        <path d="M24.7,25.6230646 C26.2372158,25.9370763 27.3,26.610821 27.3,27.3913043 C27.3,28.4718615 25.2628956,29.3478261 22.75,29.3478261 C20.2371044,29.3478261 18.2,28.4718615 18.2,27.3913043 C18.2,26.610821 19.2627842,25.9370763 20.8,25.6230646 L20.8,0 L24.7,0 L24.7,25.6230646 Z" id="path-7"></path>
        <path d="M20.8,28.2317603 C22.3372158,28.5457719 23.4,29.2195167 23.4,30 C23.4,31.0805571 21.3628956,31.9565217 18.85,31.9565217 C16.3371044,31.9565217 14.3,31.0805571 14.3,30 C14.3,29.2195167 15.3627842,28.5457719 16.9,28.2317603 L16.9,0 L20.8,0 L20.8,28.2317603 Z" id="path-8"></path>
        <path d="M16.9,29.5361081 C18.4372158,29.8501197 19.5,30.5238645 19.5,31.3043478 C19.5,32.3849049 17.4628956,33.2608696 14.95,33.2608696 C12.4371044,33.2608696 10.4,32.3849049 10.4,31.3043478 C10.4,30.5238645 11.4627842,29.8501197 13,29.5361081 L13,0 L16.9,0 L16.9,29.5361081 Z" id="path-9"></path>
        <path d="M32.5,25.4524425 C35.0651025,25.5928509 37.05,26.55337 37.05,27.7173913 C37.05,28.9780413 34.7218807,30 31.85,30 C28.9781193,30 26.65,28.9780413 26.65,27.7173913 C26.65,26.9965479 27.4111988,26.3537466 28.6,25.935424 L28.6,-7.11797454e-05 C30.7539105,-7.11797454e-05 32.5,1.7460183 32.5,3.89992882 L32.5,25.4524425 Z" id="path-10"></path>
        <path d="M28.6,28.806982 C30.4934376,29.0755709 31.85,29.8002921 31.85,30.6521739 C31.85,31.732731 29.6673882,32.6086957 26.975,32.6086957 C24.2826118,32.6086957 22.1,31.732731 22.1,30.6521739 C22.1,29.9013798 23.1537139,29.2493583 24.7,28.9213165 L24.7,0 L28.6,0 L28.6,28.806982 Z" id="path-11"></path>
    </defs>
    <g id="/home" stroke="none" stroke-width="1" fill="none" fill-rule="evenodd" transform="translate(-593.000000, -1085.000000)">
        <g id="icon-rainbow" transform="translate(595.000000, 1087.000000)">
            <path d="M32.5,74.3478261 C55.0106579,74.3478261 65,71.2407732 65,64.2391304 C65,57.2374877 55.0106579,54.1304348 32.5,54.1304348 C9.98934212,54.1304348 1.37838026e-15,57.2374877 0,64.2391304 C0,71.2407732 9.98934212,74.3478261 32.5,74.3478261 Z" id="shadow" fill-opacity="0.049999997" fill="#000000"></path>
            <g id="emoji">
                <use fill="#C5E4A0" fill-rule="evenodd" xlink:href="#path-1"></use>
                <use fill="black" fill-opacity="1" filter="url(#filter-2)" xlink:href="#path-1"></use>
                <use stroke="#494E61" stroke-width="3.9" xlink:href="#path-1"></use>
            </g>
            <g id="eyebrows" transform="translate(11.700000, 15.652174)" stroke="#494E61" stroke-linecap="round" stroke-width="3.9">
                <path d="M41.6,2.60869565 C35.1,-4.16708766 27.406821,9.13043478 27.3,1.95652174" id="right-eyebrow"></path>
                <path d="M14.3,1.95652174 C14.193179,9.13043478 6.5,-4.16708766 2.84217196e-14,2.60869565" id="left-eyebrow"></path>
            </g>
            <ellipse id="left-eye" fill="#494E61" cx="19.5" cy="29.3478261" rx="3.9" ry="3.91304348"></ellipse>
            <ellipse id="right-eye" fill="#494E61" cx="45.5" cy="29.3478261" rx="3.9" ry="3.91304348"></ellipse>
            <g id="mouth" transform="translate(16.900000, 37.826087)">
                <mask id="mask-4" fill="white">
                    <use xlink:href="#path-3"></use>
                </mask>
                <use stroke="#494E61" stroke-width="7.02" fill="#494E61" xlink:href="#path-3"></use>
            </g>
            <g id="rainbow" transform="translate(13.650000, 41.739130)">
                <g id="Group">
                    <g id="Combined-Shape-Copy-7">
                        <use fill="#494E61" fill-rule="evenodd" xlink:href="#path-5"></use>
                        <path stroke="#494E61" stroke-width="3.9" d="M11.05,25.8028987 C11.8561349,26.4652504 12.35,27.3223696 12.35,28.3695652 C12.35,31.1460414 9.0327914,32.6021739 5.2,32.6021739 C1.3672086,32.6021739 -1.95,31.1460414 -1.95,28.3695652 C-1.95,26.0790162 0.307688834,24.6870916 3.25,24.2700349 L3.25,3.9 C3.25,0.669134213 5.86913421,-1.95 9.1,-1.95 L11.05,-1.95 L11.05,25.8028987 Z"></path>
                    </g>
                    <g id="Combined-Shape-Copy-6">
                        <use fill="#494E61" fill-rule="evenodd" xlink:href="#path-6"></use>
                        <path stroke="#494E61" stroke-width="3.9" d="M14.95,27.091439 C16.1370095,27.7359905 16.9,28.6912249 16.9,30 C16.9,32.6074821 13.8790111,33.9065217 10.4,33.9065217 C6.92098892,33.9065217 3.9,32.6074821 3.9,30 C3.9,28.2562497 5.23101679,27.1239436 7.15,26.544393 L7.15,-1.95 L14.95,-1.95 L14.95,27.091439 Z"></path>
                    </g>
                    <g id="Combined-Shape-Copy-5">
                        <use fill="#494E61" fill-rule="evenodd" xlink:href="#path-7"></use>
                        <path stroke="#494E61" stroke-width="3.9" d="M26.65,24.1704589 C28.2098359,24.7984078 29.25,25.8520105 29.25,27.3913043 C29.25,29.9987864 26.2290111,31.2978261 22.75,31.2978261 C19.2709889,31.2978261 16.25,29.9987864 16.25,27.3913043 C16.25,25.8520105 17.2901641,24.7984078 18.85,24.1704589 L18.85,-1.95 L26.65,-1.95 L26.65,24.1704589 Z"></path>
                    </g>
                    <g id="Combined-Shape-Copy-4">
                        <use fill="#494E61" fill-rule="evenodd" xlink:href="#path-8"></use>
                        <path stroke="#494E61" stroke-width="3.9" d="M22.75,26.7791546 C24.3098359,27.4071035 25.35,28.4607062 25.35,30 C25.35,32.6074821 22.3290111,33.9065217 18.85,33.9065217 C15.3709889,33.9065217 12.35,32.6074821 12.35,30 C12.35,28.4607062 13.3901641,27.4071035 14.95,26.7791546 L14.95,-1.95 L22.75,-1.95 L22.75,26.7791546 Z"></path>
                    </g>
                    <g id="Combined-Shape-Copy-3">
                        <use fill="#494E61" fill-rule="evenodd" xlink:href="#path-9"></use>
                        <path stroke="#494E61" stroke-width="3.9" d="M18.85,28.0835024 C20.4098359,28.7114513 21.45,29.765054 21.45,31.3043478 C21.45,33.9118299 18.4290111,35.2108696 14.95,35.2108696 C11.4709889,35.2108696 8.45,33.9118299 8.45,31.3043478 C8.45,29.765054 9.49016405,28.7114513 11.05,28.0835024 L11.05,-1.95 L18.85,-1.95 L18.85,28.0835024 Z"></path>
                    </g>
                    <g id="Combined-Shape-Copy-2">
                        <use fill="#494E61" fill-rule="evenodd" xlink:href="#path-10"></use>
                        <path stroke="#494E61" stroke-width="3.9" d="M34.45,23.7326069 C37.0731434,24.2548619 39,25.5929925 39,27.7173913 C39,30.4938675 35.6827914,31.95 31.85,31.95 C28.0172086,31.95 24.7,30.4938675 24.7,27.7173913 C24.7,26.3979022 25.4573361,25.3946775 26.65,24.6915618 L26.65,-1.95007118 L28.6,-1.95007118 C31.8308658,-1.95007118 34.45,0.669063034 34.45,3.89992882 L34.45,23.7326069 Z"></path>
                    </g>
                    <g id="Combined-Shape-Copy">
                        <use fill="#494E61" fill-rule="evenodd" xlink:href="#path-11"></use>
                        <path stroke="#494E61" stroke-width="3.9" d="M30.55,27.2363159 C32.4841633,27.8196768 33.8,28.9200551 33.8,30.6521739 C33.8,33.2962669 30.6544484,34.5586957 26.975,34.5586957 C23.2955516,34.5586957 20.15,33.2962669 20.15,30.6521739 C20.15,29.1205082 21.1813284,28.094146 22.75,27.4700282 L22.75,-1.95 L30.55,-1.95 L30.55,27.2363159 Z"></path>
                    </g>
                </g>
                <path d="M9.1,26.8597198 C9.90907243,27.2621056 10.4,27.7906691 10.4,28.3695652 C10.4,29.6302152 8.0718807,30.6521739 5.2,30.6521739 C2.3281193,30.6521739 0,29.6302152 0,28.3695652 C0,27.1089152 2.3281193,26.0869565 5.2,26.0869565 L5.2,3.9 C5.2,1.74608948 6.94608948,3.95666944e-16 9.1,0 L9.1,26.8597198 Z" id="Combined-Shape" fill="#F5ABAB"></path>
                <path d="M12.9568134,28.3813726 C14.1598919,28.7334482 14.95,29.3270476 14.95,30 C14.95,31.0805571 12.9128956,31.9565217 10.4,31.9565217 C7.88710439,31.9565217 5.85,31.0805571 5.85,30 C5.85,29.113343 7.22160531,28.3644404 9.10220724,28.124218 C9.10074252,28.098941 9.1,28.0734703 9.1,28.0478261 L9.1,0 L13,0 L13,28.0478261 C13,28.1631303 12.9849886,28.2749283 12.9568134,28.3813726 Z" id="Combined-Shape" fill="#FFBD90"></path>
                <path d="M24.7,25.6230646 C26.2372158,25.9370763 27.3,26.610821 27.3,27.3913043 C27.3,28.4718615 25.2628956,29.3478261 22.75,29.3478261 C20.2371044,29.3478261 18.2,28.4718615 18.2,27.3913043 C18.2,26.610821 19.2627842,25.9370763 20.8,25.6230646 L20.8,0 L24.7,0 L24.7,25.6230646 Z" id="Combined-Shape" fill="#C2EBFF"></path>
                <path d="M20.8,28.2317603 C22.3372158,28.5457719 23.4,29.2195167 23.4,30 C23.4,31.0805571 21.3628956,31.9565217 18.85,31.9565217 C16.3371044,31.9565217 14.3,31.0805571 14.3,30 C14.3,29.2195167 15.3627842,28.5457719 16.9,28.2317603 L16.9,0 L20.8,0 L20.8,28.2317603 Z" id="Combined-Shape" fill="#83E4B5"></path>
                <path d="M16.9,29.5361081 C18.4372158,29.8501197 19.5,30.5238645 19.5,31.3043478 C19.5,32.3849049 17.4628956,33.2608696 14.95,33.2608696 C12.4371044,33.2608696 10.4,32.3849049 10.4,31.3043478 C10.4,30.5238645 11.4627842,29.8501197 13,29.5361081 L13,0 L16.9,0 L16.9,29.5361081 Z" id="Combined-Shape" fill="#FFF597"></path>
                <path d="M32.5,25.4524425 C35.0651025,25.5928509 37.05,26.55337 37.05,27.7173913 C37.05,28.9780413 34.7218807,30 31.85,30 C28.9781193,30 26.65,28.9780413 26.65,27.7173913 C26.65,26.9965479 27.4111988,26.3537466 28.6,25.935424 L28.6,-7.11797454e-05 C30.7539105,-7.11797454e-05 32.5,1.7460183 32.5,3.89992882 L32.5,25.4524425 Z" id="Combined-Shape" fill="#A093D7"></path>
                <path d="M28.6,28.806982 C30.4934376,29.0755709 31.85,29.8002921 31.85,30.6521739 C31.85,31.732731 29.6673882,32.6086957 26.975,32.6086957 C24.2826118,32.6086957 22.1,31.732731 22.1,30.6521739 C22.1,29.9013798 23.1537139,29.2493583 24.7,28.9213165 L24.7,0 L28.6,0 L28.6,28.806982 Z" id="Combined-Shape" fill="#84DDFF"></path>
            </g>
            <path d="M37.1264402,58.6083424 C34.0400485,57.7122073 29.9,56.2244651 29.9,55.4347826 C29.9,54.6451001 34.0400485,53.1573579 37.1264402,52.2612228 C38.0225753,49.1748311 39.5103175,45.0347826 40.3,45.0347826 C41.0896825,45.0347826 42.5774247,49.1748311 43.4735598,52.2612228 C46.5599515,53.1573579 50.7,54.6451001 50.7,55.4347826 C50.7,56.2244651 46.5599515,57.7122073 43.4735598,58.6083424 C42.5774247,61.6947341 41.0896825,65.8347826 40.3,65.8347826 C39.5103175,65.8347826 38.0225753,61.6947341 37.1264402,58.6083424 Z" id="flare" stroke="#494E61" stroke-width="3.9" fill="#FFFFFF"></path>
        </g>
    </g>
</svg>