<?xml version="1.0" encoding="UTF-8"?>
<svg width="465px" height="113px" viewBox="0 0 465 113" version="1.1" xmlns="http://www.w3.org/2000/svg" xmlns:xlink="http://www.w3.org/1999/xlink">
    <!-- Generator: Sketch 48.2 (47327) - http://www.bohemiancoding.com/sketch -->
    <title>logo-xl</title>
    <desc>Created with Sketch.</desc>
    <defs>
        <path d="M40.5,98.6764706 C68.5517429,98.6764706 81,86.2462937 81,58.2352941 C81,30.2242945 68.5517429,17.7941176 40.5,17.7941176 C12.4482571,17.7941176 1.71767386e-15,30.2242945 0,58.2352941 C0,86.2462937 12.4482571,98.6764706 40.5,98.6764706 Z" id="path-1"></path>
        <filter x="-12.9%" y="-12.9%" width="125.7%" height="125.8%" filterUnits="objectBoundingBox" id="filter-2">
            <feOffset dx="8" dy="8" in="SourceAlpha" result="shadowOffsetInner1"></feOffset>
            <feComposite in="shadowOffsetInner1" in2="SourceAlpha" operator="arithmetic" k2="-1" k3="1" result="shadowInnerInner1"></feComposite>
            <feColorMatrix values="0 0 0 0 1   0 0 0 0 1   0 0 0 0 1  0 0 0 1 0" type="matrix" in="shadowInnerInner1" result="shadowMatrixInner1"></feColorMatrix>
            <feOffset dx="-16" dy="-4" in="SourceAlpha" result="shadowOffsetInner2"></feOffset>
            <feComposite in="shadowOffsetInner2" in2="SourceAlpha" operator="arithmetic" k2="-1" k3="1" result="shadowInnerInner2"></feComposite>
            <feColorMatrix values="0 0 0 0 0   0 0 0 0 0   0 0 0 0 0  0 0 0 0.05 0" type="matrix" in="shadowInnerInner2" result="shadowMatrixInner2"></feColorMatrix>
            <feMerge>
                <feMergeNode in="shadowMatrixInner1"></feMergeNode>
                <feMergeNode in="shadowMatrixInner2"></feMergeNode>
            </feMerge>
        </filter>
        <path d="M53.055,24.2647059 C54.8850708,24.2647059 59.13,20.0259422 59.13,18.1985294 C59.13,16.3711166 54.8850708,12.1323529 53.055,12.1323529 C51.2249292,12.1323529 46.98,16.3711166 46.98,18.1985294 C46.98,20.0259422 51.2249292,24.2647059 53.055,24.2647059 Z" id="path-3"></path>
        <filter x="-85.8%" y="-85.9%" width="271.5%" height="271.8%" filterUnits="objectBoundingBox" id="filter-4">
            <feOffset dx="8" dy="8" in="SourceAlpha" result="shadowOffsetInner1"></feOffset>
            <feComposite in="shadowOffsetInner1" in2="SourceAlpha" operator="arithmetic" k2="-1" k3="1" result="shadowInnerInner1"></feComposite>
            <feColorMatrix values="0 0 0 0 1   0 0 0 0 1   0 0 0 0 1  0 0 0 1 0" type="matrix" in="shadowInnerInner1" result="shadowMatrixInner1"></feColorMatrix>
            <feOffset dx="-16" dy="-4" in="SourceAlpha" result="shadowOffsetInner2"></feOffset>
            <feComposite in="shadowOffsetInner2" in2="SourceAlpha" operator="arithmetic" k2="-1" k3="1" result="shadowInnerInner2"></feComposite>
            <feColorMatrix values="0 0 0 0 0   0 0 0 0 0   0 0 0 0 0  0 0 0 0.05 0" type="matrix" in="shadowInnerInner2" result="shadowMatrixInner2"></feColorMatrix>
            <feMerge>
                <feMergeNode in="shadowMatrixInner1"></feMergeNode>
                <feMergeNode in="shadowMatrixInner2"></feMergeNode>
            </feMerge>
        </filter>
        <path d="M41.31,9.70588235 C42.7740567,9.70588235 46.17,6.3148714 46.17,4.85294118 C46.17,3.39101096 42.7740567,0 41.31,0 C39.8459433,0 36.45,3.39101096 36.45,4.85294118 C36.45,6.3148714 39.8459433,9.70588235 41.31,9.70588235 Z" id="path-5"></path>
        <filter x="-107.2%" y="-107.3%" width="314.4%" height="314.7%" filterUnits="objectBoundingBox" id="filter-6">
            <feOffset dx="8" dy="8" in="SourceAlpha" result="shadowOffsetInner1"></feOffset>
            <feComposite in="shadowOffsetInner1" in2="SourceAlpha" operator="arithmetic" k2="-1" k3="1" result="shadowInnerInner1"></feComposite>
            <feColorMatrix values="0 0 0 0 1   0 0 0 0 1   0 0 0 0 1  0 0 0 1 0" type="matrix" in="shadowInnerInner1" result="shadowMatrixInner1"></feColorMatrix>
            <feOffset dx="-16" dy="-4" in="SourceAlpha" result="shadowOffsetInner2"></feOffset>
            <feComposite in="shadowOffsetInner2" in2="SourceAlpha" operator="arithmetic" k2="-1" k3="1" result="shadowInnerInner2"></feComposite>
            <feColorMatrix values="0 0 0 0 0   0 0 0 0 0   0 0 0 0 0  0 0 0 0.05 0" type="matrix" in="shadowInnerInner2" result="shadowMatrixInner2"></feColorMatrix>
            <feMerge>
                <feMergeNode in="shadowMatrixInner1"></feMergeNode>
                <feMergeNode in="shadowMatrixInner2"></feMergeNode>
            </feMerge>
        </filter>
        <path d="M18.63,12.8430551 C32.6667033,12.8430551 37.26,14.1076215 37.26,7.73380921 C37.26,1.35999696 24.8224928,0 18.63,0 C12.4375072,0 0,1.35999696 0,7.73380921 C0,14.1076215 4.59329672,12.8430551 18.63,12.8430551 Z" id="path-7"></path>
    </defs>
    <g id="/home" stroke="none" stroke-width="1" fill="none" fill-rule="evenodd" transform="translate(-56.000000, -52.000000)">
        <g id="logo-xl" transform="translate(59.000000, 55.000000)">
            <g id="Group-2">
                <path d="M166.231934,52.7685547 L172.516113,48.8647461 C173.298995,48.4415669 173.812092,48.0025251 174.05542,47.5476074 C174.298748,47.0926898 174.362224,46.6800963 174.24585,46.3098145 C174.129475,45.9395327 173.854413,45.6327323 173.420654,45.3894043 C172.986896,45.1460763 172.494957,45.0244141 171.944824,45.0244141 L171.944824,33.2495117 L197.557617,33.2495117 L197.557617,45.0244141 C196.203444,45.0244141 195.01856,45.1672349 194.00293,45.4528809 C192.9873,45.7385268 191.855312,46.2516239 190.606934,46.9921875 L184.037109,50.8642578 L194.701172,64.6704102 C195.082033,65.2205431 195.457599,65.7124816 195.827881,66.1462402 C196.198163,66.5799989 196.600177,66.9502752 197.033936,67.2570801 C197.467694,67.563885 197.975502,67.8019197 198.557373,67.9711914 C199.139244,68.1404631 199.863928,68.2250977 200.731445,68.2250977 L200.731445,80 L171.944824,80 L171.944824,68.2250977 C172.854659,68.2250977 173.515867,68.0981458 173.928467,67.8442383 C174.341067,67.5903308 174.60026,67.2782408 174.706055,66.907959 C174.811849,66.5376772 174.80127,66.1779803 174.674316,65.8288574 C174.547363,65.4797346 174.420411,65.2205412 174.293457,65.0512695 L169.723145,59.3383789 L166.231934,61.4648438 L166.231934,65.0512695 C166.231934,65.6225615 166.253092,66.0986309 166.29541,66.4794922 C166.337728,66.8603535 166.475259,67.1830228 166.708008,67.4475098 C166.940756,67.7119968 167.284584,67.9077142 167.739502,68.034668 C168.19442,68.1616217 168.81331,68.2250977 169.596191,68.2250977 L169.596191,80 L142.30127,80 L142.30127,68.2250977 C144.163258,68.2250977 145.496252,67.9764836 146.300293,67.479248 C147.104333,66.9820125 147.506348,66.0457426 147.506348,64.6704102 L147.506348,48.6108398 C147.506348,47.2143485 147.104333,46.2674992 146.300293,45.7702637 C145.496252,45.2730281 144.163258,45.0244141 142.30127,45.0244141 L142.30127,33.2495117 L169.596191,33.2495117 L169.596191,45.0244141 C168.81331,45.0244141 168.19442,45.08789 167.739502,45.2148438 C167.284584,45.3417975 166.940756,45.537515 166.708008,45.802002 C166.475259,46.066489 166.337728,46.3944479 166.29541,46.7858887 C166.253092,47.1773294 166.231934,47.6586885 166.231934,48.2299805 L166.231934,52.7685547 Z M239.261719,63.0200195 L233.231445,80 L219.10791,80 L206.888672,48.6108398 C206.634764,47.9549121 206.402019,47.410077 206.19043,46.9763184 C205.97884,46.5425597 205.687909,46.1722834 205.317627,45.8654785 C204.947345,45.5586736 204.476565,45.3417975 203.905273,45.2148438 C203.333982,45.08789 202.593429,45.0244141 201.683594,45.0244141 L201.683594,33.2495117 L228.216797,33.2495117 L228.216797,45.0244141 C227.095372,45.0244141 226.296633,45.2941868 225.820557,45.8337402 C225.34448,46.3732937 225.275714,47.1720325 225.614258,48.2299805 L230.248047,63.6230469 L230.501953,63.6230469 L234.659668,50.4833984 L233.993164,48.6108398 C233.527667,47.3413022 233.088625,46.426191 232.676025,45.8654785 C232.263426,45.3047661 231.559901,45.0244141 230.56543,45.0244141 L230.56543,33.2495117 L255.702148,33.2495117 L255.702148,45.0244141 C254.115226,45.0244141 253.136639,45.2941868 252.766357,45.8337402 C252.396076,46.3732937 252.380207,47.1720325 252.71875,48.2299805 L256.686035,63.6230469 L256.939941,63.6230469 L261.700684,48.2299805 C262.356611,46.0929255 261.139989,45.0244141 258.050781,45.0244141 L258.050781,33.2495117 L276.522461,33.2495117 L276.522461,45.0244141 C275.612626,45.0244141 274.861494,45.08789 274.269043,45.2148438 C273.676592,45.3417975 273.211102,45.5480943 272.872559,45.8337402 C272.534015,46.1193862 272.253663,46.4896624 272.031494,46.9445801 C271.809325,47.3994977 271.57129,47.9549121 271.317383,48.6108398 L259.669434,80 L245.577637,80 L239.261719,63.0200195 Z M308.102051,68.2250977 C308.969568,68.2250977 309.694252,68.1510424 310.276123,68.0029297 C310.857994,67.854817 311.323485,67.574465 311.672607,67.1618652 C312.02173,66.7492655 312.259765,66.1832718 312.386719,65.4638672 C312.513673,64.7444625 312.577148,63.8240616 312.577148,62.7026367 L323.685547,62.7026367 L323.685547,80 L278.458496,80 L278.458496,68.2250977 C280.320485,68.2250977 281.653479,67.9764836 282.45752,67.479248 C283.26156,66.9820125 283.663574,66.0457426 283.663574,64.6704102 L283.663574,48.6108398 C283.663574,47.2143485 283.26156,46.2674992 282.45752,45.7702637 C281.653479,45.2730281 280.320485,45.0244141 278.458496,45.0244141 L278.458496,33.2495117 L323.685547,33.2495117 L323.685547,50.546875 L312.577148,50.546875 C312.577148,49.4254501 312.513673,48.5050492 312.386719,47.7856445 C312.259765,47.0662399 312.02173,46.5055359 311.672607,46.1035156 C311.323485,45.7014954 310.857994,45.4211434 310.276123,45.2624512 C309.694252,45.103759 308.969568,45.0244141 308.102051,45.0244141 L302.38916,45.0244141 L302.38916,53.4667969 L312.513672,53.4667969 L312.513672,59.0844727 L302.38916,59.0844727 L302.38916,68.2250977 L308.102051,68.2250977 Z M355.931641,68.2250977 C356.799158,68.2250977 357.523841,68.1510424 358.105713,68.0029297 C358.687584,67.854817 359.153074,67.574465 359.502197,67.1618652 C359.85132,66.7492655 360.089355,66.1832718 360.216309,65.4638672 C360.343262,64.7444625 360.406738,63.8240616 360.406738,62.7026367 L371.515137,62.7026367 L371.515137,80 L326.288086,80 L326.288086,68.2250977 C328.150074,68.2250977 329.483069,67.9764836 330.287109,67.479248 C331.09115,66.9820125 331.493164,66.0457426 331.493164,64.6704102 L331.493164,48.6108398 C331.493164,47.2143485 331.09115,46.2674992 330.287109,45.7702637 C329.483069,45.2730281 328.150074,45.0244141 326.288086,45.0244141 L326.288086,33.2495117 L371.515137,33.2495117 L371.515137,50.546875 L360.406738,50.546875 C360.406738,49.4254501 360.343262,48.5050492 360.216309,47.7856445 C360.089355,47.0662399 359.85132,46.5055359 359.502197,46.1035156 C359.153074,45.7014954 358.687584,45.4211434 358.105713,45.2624512 C357.523841,45.103759 356.799158,45.0244141 355.931641,45.0244141 L350.21875,45.0244141 L350.21875,53.4667969 L360.343262,53.4667969 L360.343262,59.0844727 L350.21875,59.0844727 L350.21875,68.2250977 L355.931641,68.2250977 Z M430.929199,33.2495117 L430.929199,45.0244141 C429.067211,45.0244141 427.845299,45.3312144 427.263428,45.9448242 C426.681556,46.5584341 426.390625,47.447097 426.390625,48.6108398 L426.390625,80 L407.315918,80 L390.748535,54.0698242 L390.748535,65.0512695 C390.748535,66.4266019 391.150549,67.2993959 391.95459,67.6696777 C392.75863,68.0399595 394.091625,68.2250977 395.953613,68.2250977 L395.953613,80 L374.117676,80 L374.117676,68.2250977 C375.979664,68.2250977 377.312659,67.9764836 378.116699,67.479248 C378.92074,66.9820125 379.322754,66.0457426 379.322754,64.6704102 L379.322754,48.6108398 C379.322754,47.2143485 378.92074,46.2674992 378.116699,45.7702637 C377.312659,45.2730281 375.979664,45.0244141 374.117676,45.0244141 L374.117676,33.2495117 L399.063965,33.2495117 L414.933105,58.1005859 L414.933105,48.6108398 C414.933105,47.2143485 414.642174,46.2674992 414.060303,45.7702637 C413.478431,45.2730281 412.25652,45.0244141 410.394531,45.0244141 L410.394531,33.2495117 L430.929199,33.2495117 Z M432.865234,80 L432.865234,68.2250977 C434.727223,68.2250977 436.060217,67.9764836 436.864258,67.479248 C437.668298,66.9820125 438.070313,66.0457426 438.070313,64.6704102 L438.070313,48.6108398 C438.070313,47.2143485 437.668298,46.2674992 436.864258,45.7702637 C436.060217,45.2730281 434.727223,45.0244141 432.865234,45.0244141 L432.865234,33.2495117 L461.969238,33.2495117 L461.969238,45.0244141 C460.10725,45.0244141 458.779545,45.2730281 457.986084,45.7702637 C457.192623,46.2674992 456.795898,47.2143485 456.795898,48.6108398 L456.795898,64.6704102 C456.795898,66.0457426 457.192623,66.9820125 457.986084,67.479248 C458.779545,67.9764836 460.10725,68.2250977 461.969238,68.2250977 L461.969238,80 L432.865234,80 Z" id="KWEENI" fill="#494E61"></path>
                <g id="mad">
                    <path d="M40.5,110 C68.5517429,110 81,106.146645 81,97.4632353 C81,88.7798254 68.5517429,84.9264706 40.5,84.9264706 C12.4482571,84.9264706 1.71767386e-15,88.7798254 0,97.4632353 C0,106.146645 12.4482571,110 40.5,110 Z" id="shadow" fill-opacity="0.049999997" fill="#000000"></path>
                    <g id="emoji">
                        <use fill="#F5ABAB" fill-rule="evenodd" xlink:href="#path-1"></use>
                        <use fill="black" fill-opacity="1" filter="url(#filter-2)" xlink:href="#path-1"></use>
                        <use stroke="#494E61" stroke-width="4.83839957" xlink:href="#path-1"></use>
                    </g>
                    <g id="Oval-Copy">
                        <use fill="#F5ABAB" fill-rule="evenodd" xlink:href="#path-3"></use>
                        <use fill="black" fill-opacity="1" filter="url(#filter-4)" xlink:href="#path-3"></use>
                        <use stroke="#494E61" stroke-width="4.83839957" xlink:href="#path-3"></use>
                    </g>
                    <g id="Oval-Copy-2">
                        <use fill="#F5ABAB" fill-rule="evenodd" xlink:href="#path-5"></use>
                        <use fill="black" fill-opacity="1" filter="url(#filter-6)" xlink:href="#path-5"></use>
                        <use stroke="#494E61" stroke-width="4.83839957" xlink:href="#path-5"></use>
                    </g>
                    <g id="eyebrows" transform="translate(14.580000, 38.823529)" stroke="#494E61" stroke-linecap="round" stroke-width="4.83839957">
                        <path d="M51.8400284,4.04411765 C51.84,-4.35918224 51.9731155,3.23529412 34.02,3.23529412" id="right-eyebrow"></path>
                        <path d="M17.82,3.23529412 C-0.133115452,3.23529412 6.45482869e-13,-4.35918224 -1.436872e-05,4.04411765" id="left-eyebrow"></path>
                    </g>
                    <ellipse id="eye" fill="#494E61" cx="24.3" cy="50.9558824" rx="4.86" ry="4.85294118"></ellipse>
                    <ellipse id="eye" fill="#494E61" cx="56.7" cy="50.9558824" rx="4.86" ry="4.85294118"></ellipse>
                    <g id="mouth" transform="translate(21.870000, 64.705882)">
                        <mask id="mask-8" fill="white">
                            <use xlink:href="#path-7"></use>
                        </mask>
                        <use id="Mask" stroke="#494E61" stroke-width="8.70911923" fill="#494E61" xlink:href="#path-7"></use>
                        <rect id="teeth" fill="#FFFFFF" mask="url(#mask-8)" x="-8.91" y="-3.23529412" width="55.08" height="8.08823529"></rect>
                        <rect id="teeth-copy" fill="#FFFFFF" mask="url(#mask-8)" x="-8.91" y="9.70588235" width="55.08" height="8.08823529"></rect>
                    </g>
                </g>
            </g>
        </g>
    </g>
</svg>