<?xml version="1.0" encoding="UTF-8"?>
<svg width="138px" height="40px" viewBox="0 0 138 40" version="1.1" xmlns="http://www.w3.org/2000/svg" xmlns:xlink="http://www.w3.org/1999/xlink">
    <!-- Generator: Sketch 48.2 (47327) - http://www.bohemiancoding.com/sketch -->
    <title>logo</title>
    <desc>Created with Sketch.</desc>
    <defs>
        <path d="M14.5,34.6862745 C24.5432166,34.6862745 29,30.316879 29,20.4705882 C29,10.6242975 24.5432166,6.25490196 14.5,6.25490196 C4.45678341,6.25490196 6.14969653e-16,10.6242975 0,20.4705882 C0,30.316879 4.45678341,34.6862745 14.5,34.6862745 Z" id="path-1"></path>
        <filter x="-13.7%" y="-14.0%" width="127.4%" height="127.9%" filterUnits="objectBoundingBox" id="filter-2">
            <feOffset dx="3" dy="3" in="SourceAlpha" result="shadowOffsetInner1"></feOffset>
            <feComposite in="shadowOffsetInner1" in2="SourceAlpha" operator="arithmetic" k2="-1" k3="1" result="shadowInnerInner1"></feComposite>
            <feColorMatrix values="0 0 0 0 1   0 0 0 0 1   0 0 0 0 1  0 0 0 1 0" type="matrix" in="shadowInnerInner1" result="shadowMatrixInner1"></feColorMatrix>
            <feOffset dx="-6" dy="-2" in="SourceAlpha" result="shadowOffsetInner2"></feOffset>
            <feComposite in="shadowOffsetInner2" in2="SourceAlpha" operator="arithmetic" k2="-1" k3="1" result="shadowInnerInner2"></feComposite>
            <feColorMatrix values="0 0 0 0 0   0 0 0 0 0   0 0 0 0 0  0 0 0 0.05 0" type="matrix" in="shadowInnerInner2" result="shadowMatrixInner2"></feColorMatrix>
            <feMerge>
                <feMergeNode in="shadowMatrixInner1"></feMergeNode>
                <feMergeNode in="shadowMatrixInner2"></feMergeNode>
            </feMerge>
        </filter>
        <path d="M18.995,8.52941176 C19.6502105,8.52941176 21.17,7.0394221 21.17,6.39705882 C21.17,5.75469555 19.6502105,4.26470588 18.995,4.26470588 C18.3397895,4.26470588 16.82,5.75469555 16.82,6.39705882 C16.82,7.0394221 18.3397895,8.52941176 18.995,8.52941176 Z" id="path-3"></path>
        <filter x="-91.2%" y="-93.0%" width="282.4%" height="286.1%" filterUnits="objectBoundingBox" id="filter-4">
            <feOffset dx="3" dy="3" in="SourceAlpha" result="shadowOffsetInner1"></feOffset>
            <feComposite in="shadowOffsetInner1" in2="SourceAlpha" operator="arithmetic" k2="-1" k3="1" result="shadowInnerInner1"></feComposite>
            <feColorMatrix values="0 0 0 0 1   0 0 0 0 1   0 0 0 0 1  0 0 0 1 0" type="matrix" in="shadowInnerInner1" result="shadowMatrixInner1"></feColorMatrix>
            <feOffset dx="-6" dy="-2" in="SourceAlpha" result="shadowOffsetInner2"></feOffset>
            <feComposite in="shadowOffsetInner2" in2="SourceAlpha" operator="arithmetic" k2="-1" k3="1" result="shadowInnerInner2"></feComposite>
            <feColorMatrix values="0 0 0 0 0   0 0 0 0 0   0 0 0 0 0  0 0 0 0.05 0" type="matrix" in="shadowInnerInner2" result="shadowMatrixInner2"></feColorMatrix>
            <feMerge>
                <feMergeNode in="shadowMatrixInner1"></feMergeNode>
                <feMergeNode in="shadowMatrixInner2"></feMergeNode>
            </feMerge>
        </filter>
        <path d="M14.79,3.41176471 C15.3141684,3.41176471 16.53,2.21977298 16.53,1.70588235 C16.53,1.19199173 15.3141684,0 14.79,0 C14.2658316,0 13.05,1.19199173 13.05,1.70588235 C13.05,2.21977298 14.2658316,3.41176471 14.79,3.41176471 Z" id="path-5"></path>
        <filter x="-114.0%" y="-116.3%" width="328.0%" height="332.6%" filterUnits="objectBoundingBox" id="filter-6">
            <feOffset dx="3" dy="3" in="SourceAlpha" result="shadowOffsetInner1"></feOffset>
            <feComposite in="shadowOffsetInner1" in2="SourceAlpha" operator="arithmetic" k2="-1" k3="1" result="shadowInnerInner1"></feComposite>
            <feColorMatrix values="0 0 0 0 1   0 0 0 0 1   0 0 0 0 1  0 0 0 1 0" type="matrix" in="shadowInnerInner1" result="shadowMatrixInner1"></feColorMatrix>
            <feOffset dx="-6" dy="-2" in="SourceAlpha" result="shadowOffsetInner2"></feOffset>
            <feComposite in="shadowOffsetInner2" in2="SourceAlpha" operator="arithmetic" k2="-1" k3="1" result="shadowInnerInner2"></feComposite>
            <feColorMatrix values="0 0 0 0 0   0 0 0 0 0   0 0 0 0 0  0 0 0 0.05 0" type="matrix" in="shadowInnerInner2" result="shadowMatrixInner2"></feColorMatrix>
            <feMerge>
                <feMergeNode in="shadowMatrixInner1"></feMergeNode>
                <feMergeNode in="shadowMatrixInner2"></feMergeNode>
            </feMerge>
        </filter>
        <path d="M6.67,4.51452845 C11.6954864,4.51452845 13.34,4.9590427 13.34,2.71855112 C13.34,0.478059536 8.88706531,0 6.67,0 C4.45293469,0 0,0.478059536 0,2.71855112 C0,4.9590427 1.64451364,4.51452845 6.67,4.51452845 Z" id="path-7"></path>
    </defs>
    <g id="logo" stroke="none" stroke-width="1" fill="none" fill-rule="evenodd" transform="translate(1.000000, 1.000000)">
        <g>
            <path d="M50.3754883,20.0400391 L52.2124023,18.8989258 C52.4412446,18.7752272 52.5912269,18.6468919 52.6623535,18.513916 C52.7334802,18.3809401 52.7520347,18.2603358 52.7180176,18.1520996 C52.6840005,18.0438634 52.6035976,17.9541833 52.4768066,17.8830566 C52.3500156,17.81193 52.2062183,17.7763672 52.0454102,17.7763672 L52.0454102,14.3344727 L59.5322266,14.3344727 L59.5322266,17.7763672 C59.1363913,17.7763672 58.7900405,17.8181148 58.4931641,17.9016113 C58.1962876,17.9851078 57.865399,18.1350901 57.5004883,18.3515625 L55.5800781,19.4833984 L58.6972656,23.519043 C58.8085943,23.6798511 58.9183751,23.8236485 59.0266113,23.9504395 C59.1348475,24.0772305 59.2523594,24.185465 59.3791504,24.2751465 C59.5059414,24.3648279 59.6543774,24.4344073 59.8244629,24.4838867 C59.9945484,24.5333661 60.2063789,24.5581055 60.4599609,24.5581055 L60.4599609,28 L52.0454102,28 L52.0454102,24.5581055 C52.311362,24.5581055 52.5046381,24.5209965 52.6252441,24.4467773 C52.7458502,24.3725582 52.8216144,24.2813319 52.8525391,24.1730957 C52.8834637,24.0648595 52.8803713,23.9597173 52.8432617,23.857666 C52.8061522,23.7556147 52.7690432,23.6798505 52.7319336,23.6303711 L51.3959961,21.9604492 L50.3754883,22.5820312 L50.3754883,23.6303711 C50.3754883,23.7973641 50.3816731,23.9365229 50.394043,24.0478516 C50.4064128,24.1591802 50.4466142,24.253499 50.5146484,24.3308105 C50.5826826,24.4081221 50.6831862,24.4653318 50.8161621,24.5024414 C50.949138,24.539551 51.1300444,24.5581055 51.3588867,24.5581055 L51.3588867,28 L43.3803711,28 L43.3803711,24.5581055 C43.9246446,24.5581055 44.3142892,24.4854337 44.5493164,24.3400879 C44.7843436,24.1947421 44.9018555,23.9210632 44.9018555,23.519043 L44.9018555,18.824707 C44.9018555,18.4165019 44.7843436,18.1397305 44.5493164,17.9943848 C44.3142892,17.849039 43.9246446,17.7763672 43.3803711,17.7763672 L43.3803711,14.3344727 L51.3588867,14.3344727 L51.3588867,17.7763672 C51.1300444,17.7763672 50.949138,17.7949217 50.8161621,17.8320312 C50.6831862,17.8691408 50.5826826,17.9263505 50.5146484,18.0036621 C50.4466142,18.0809737 50.4064128,18.1768386 50.394043,18.2912598 C50.3816731,18.4056809 50.3754883,18.5463859 50.3754883,18.7133789 L50.3754883,20.0400391 Z M71.7226562,23.0366211 L69.9599609,28 L65.831543,28 L62.2597656,18.824707 C62.1855465,18.6329743 62.1175133,18.4737148 62.0556641,18.3469238 C61.9938148,18.2201328 61.9087733,18.1118982 61.8005371,18.0222168 C61.6923009,17.9325354 61.5546883,17.8691408 61.3876953,17.8320312 C61.2207023,17.7949217 61.0042331,17.7763672 60.7382812,17.7763672 L60.7382812,14.3344727 L68.4941406,14.3344727 L68.4941406,17.7763672 C68.1663395,17.7763672 67.932862,17.8552238 67.7937012,18.0129395 C67.6545403,18.1706551 67.6344396,18.4041326 67.7333984,18.7133789 L69.0878906,23.2128906 L69.1621094,23.2128906 L70.3774414,19.3720703 L70.1826172,18.824707 C70.0465488,18.4536114 69.9182135,18.1861174 69.7976074,18.0222168 C69.6770014,17.8583162 69.4713556,17.7763672 69.1806641,17.7763672 L69.1806641,14.3344727 L76.5283203,14.3344727 L76.5283203,17.7763672 C76.0644508,17.7763672 75.7784022,17.8552238 75.670166,18.0129395 C75.5619298,18.1706551 75.5572912,18.4041326 75.65625,18.7133789 L76.815918,23.2128906 L76.8901367,23.2128906 L78.2817383,18.7133789 C78.473471,18.0887013 78.1178431,17.7763672 77.2148438,17.7763672 L77.2148438,14.3344727 L82.6142578,14.3344727 L82.6142578,17.7763672 C82.348306,17.7763672 82.1287444,17.7949217 81.9555664,17.8320312 C81.7823885,17.8691408 81.6463221,17.9294429 81.5473633,18.0129395 C81.4484045,18.096436 81.3664554,18.2046706 81.3015137,18.3376465 C81.2365719,18.4706224 81.1669926,18.6329743 81.0927734,18.824707 L77.6879883,28 L73.5688477,28 L71.7226562,23.0366211 Z M91.8452148,24.5581055 C92.0987968,24.5581055 92.3106274,24.5364585 92.4807129,24.4931641 C92.6507984,24.4498696 92.7868647,24.3679205 92.888916,24.2473145 C92.9909673,24.1267084 93.0605467,23.9612641 93.0976562,23.7509766 C93.1347658,23.5406891 93.1533203,23.2716488 93.1533203,22.9438477 L96.4003906,22.9438477 L96.4003906,28 L83.1801758,28 L83.1801758,24.5581055 C83.7244493,24.5581055 84.1140939,24.4854337 84.3491211,24.3400879 C84.5841483,24.1947421 84.7016602,23.9210632 84.7016602,23.519043 L84.7016602,18.824707 C84.7016602,18.4165019 84.5841483,18.1397305 84.3491211,17.9943848 C84.1140939,17.849039 83.7244493,17.7763672 83.1801758,17.7763672 L83.1801758,14.3344727 L96.4003906,14.3344727 L96.4003906,19.390625 L93.1533203,19.390625 C93.1533203,19.0628239 93.1347658,18.7937836 93.0976562,18.5834961 C93.0605467,18.3732086 92.9909673,18.2093105 92.888916,18.0917969 C92.7868647,17.9742833 92.6507984,17.8923342 92.4807129,17.8459473 C92.3106274,17.7995603 92.0987968,17.7763672 91.8452148,17.7763672 L90.175293,17.7763672 L90.175293,20.2441406 L93.1347656,20.2441406 L93.1347656,21.8862305 L90.175293,21.8862305 L90.175293,24.5581055 L91.8452148,24.5581055 Z M105.826172,24.5581055 C106.079754,24.5581055 106.291584,24.5364585 106.46167,24.4931641 C106.631755,24.4498696 106.767822,24.3679205 106.869873,24.2473145 C106.971924,24.1267084 107.041504,23.9612641 107.078613,23.7509766 C107.115723,23.5406891 107.134277,23.2716488 107.134277,22.9438477 L110.381348,22.9438477 L110.381348,28 L97.1611328,28 L97.1611328,24.5581055 C97.7054064,24.5581055 98.0950509,24.4854337 98.3300781,24.3400879 C98.5651053,24.1947421 98.6826172,23.9210632 98.6826172,23.519043 L98.6826172,18.824707 C98.6826172,18.4165019 98.5651053,18.1397305 98.3300781,17.9943848 C98.0950509,17.849039 97.7054064,17.7763672 97.1611328,17.7763672 L97.1611328,14.3344727 L110.381348,14.3344727 L110.381348,19.390625 L107.134277,19.390625 C107.134277,19.0628239 107.115723,18.7937836 107.078613,18.5834961 C107.041504,18.3732086 106.971924,18.2093105 106.869873,18.0917969 C106.767822,17.9742833 106.631755,17.8923342 106.46167,17.8459473 C106.291584,17.7995603 106.079754,17.7763672 105.826172,17.7763672 L104.15625,17.7763672 L104.15625,20.2441406 L107.115723,20.2441406 L107.115723,21.8862305 L104.15625,21.8862305 L104.15625,24.5581055 L105.826172,24.5581055 Z M127.748535,14.3344727 L127.748535,17.7763672 C127.204262,17.7763672 126.847087,17.8660473 126.677002,18.0454102 C126.506916,18.224773 126.421875,18.4845361 126.421875,18.824707 L126.421875,28 L120.846191,28 L116.003418,20.4204102 L116.003418,23.6303711 C116.003418,24.0323913 116.12093,24.2875157 116.355957,24.395752 C116.590984,24.5039882 116.980629,24.5581055 117.524902,24.5581055 L117.524902,28 L111.14209,28 L111.14209,24.5581055 C111.686363,24.5581055 112.076008,24.4854337 112.311035,24.3400879 C112.546062,24.1947421 112.663574,23.9210632 112.663574,23.519043 L112.663574,18.824707 C112.663574,18.4165019 112.546062,18.1397305 112.311035,17.9943848 C112.076008,17.849039 111.686363,17.7763672 111.14209,17.7763672 L111.14209,14.3344727 L118.434082,14.3344727 L123.072754,21.5986328 L123.072754,18.824707 C123.072754,18.4165019 122.987712,18.1397305 122.817627,17.9943848 C122.647541,17.849039 122.290367,17.7763672 121.746094,17.7763672 L121.746094,14.3344727 L127.748535,14.3344727 Z M128.314453,28 L128.314453,24.5581055 C128.858727,24.5581055 129.248371,24.4854337 129.483398,24.3400879 C129.718426,24.1947421 129.835938,23.9210632 129.835938,23.519043 L129.835938,18.824707 C129.835938,18.4165019 129.718426,18.1397305 129.483398,17.9943848 C129.248371,17.849039 128.858727,17.7763672 128.314453,17.7763672 L128.314453,14.3344727 L136.821777,14.3344727 L136.821777,17.7763672 C136.277504,17.7763672 135.889405,17.849039 135.657471,17.9943848 C135.425536,18.1397305 135.30957,18.4165019 135.30957,18.824707 L135.30957,23.519043 C135.30957,23.9210632 135.425536,24.1947421 135.657471,24.3400879 C135.889405,24.4854337 136.277504,24.5581055 136.821777,24.5581055 L136.821777,28 L128.314453,28 Z" id="KWEENI" fill="#FFFFFF"></path>
            <g id="mad">
                <path d="M14.5,38.6666667 C24.5432166,38.6666667 29,37.3121541 29,34.2598039 C29,31.2074538 24.5432166,29.8529412 14.5,29.8529412 C4.45678341,29.8529412 6.14969653e-16,31.2074538 0,34.2598039 C0,37.3121541 4.45678341,38.6666667 14.5,38.6666667 Z" id="shadow" fill-opacity="0.049999997" fill="#000000"></path>
                <g id="emoji">
                    <use fill="#F5ABAB" fill-rule="evenodd" xlink:href="#path-1"></use>
                    <use fill="black" fill-opacity="1" filter="url(#filter-2)" xlink:href="#path-1"></use>
                    <use stroke="#494E61" stroke-width="1.93535971" xlink:href="#path-1"></use>
                </g>
                <g id="Oval-Copy">
                    <use fill="#F5ABAB" fill-rule="evenodd" xlink:href="#path-3"></use>
                    <use fill="black" fill-opacity="1" filter="url(#filter-4)" xlink:href="#path-3"></use>
                    <use stroke="#494E61" stroke-width="1.93535971" xlink:href="#path-3"></use>
                </g>
                <g id="Oval-Copy-2">
                    <use fill="#F5ABAB" fill-rule="evenodd" xlink:href="#path-5"></use>
                    <use fill="black" fill-opacity="1" filter="url(#filter-6)" xlink:href="#path-5"></use>
                    <use stroke="#494E61" stroke-width="1.93535971" xlink:href="#path-5"></use>
                </g>
                <g id="eyebrows" transform="translate(5.220000, 13.647059)" stroke="#494E61" stroke-linecap="round" stroke-width="1.93535971">
                    <path d="M18.5600102,1.42156863 C18.56,-1.53231861 18.6076586,1.1372549 12.18,1.1372549" id="right-eyebrow"></path>
                    <path d="M6.38,1.1372549 C-0.0476586185,1.1372549 2.31098805e-13,-1.53231861 -5.14435656e-06,1.42156863" id="left-eyebrow"></path>
                </g>
                <ellipse id="eye" fill="#494E61" cx="8.7" cy="17.9117647" rx="1.74" ry="1.70588235"></ellipse>
                <ellipse id="eye" fill="#494E61" cx="20.3" cy="17.9117647" rx="1.74" ry="1.70588235"></ellipse>
                <g id="mouth" transform="translate(7.830000, 22.745098)">
                    <mask id="mask-8" fill="white">
                        <use xlink:href="#path-7"></use>
                    </mask>
                    <use id="Mask" stroke="#494E61" stroke-width="3.48364749" fill="#494E61" xlink:href="#path-7"></use>
                    <rect id="teeth" fill="#FFFFFF" mask="url(#mask-8)" x="-3.19" y="-1.1372549" width="19.72" height="2.84313725"></rect>
                    <rect id="teeth-copy" fill="#FFFFFF" mask="url(#mask-8)" x="-3.19" y="3.41176471" width="19.72" height="2.84313725"></rect>
                </g>
            </g>
        </g>
    </g>
</svg>